<?xml version="1.0" standalone="no"?>
<!DOCTYPE svg PUBLIC "-//W3C//DTD SVG 20010904//EN"
 "http://www.w3.org/TR/2001/REC-SVG-20010904/DTD/svg10.dtd">
<svg version="1.0" xmlns="http://www.w3.org/2000/svg"
 width="5001.000000pt" height="3750.000000pt" viewBox="0 0 5001.000000 3750.000000"
 preserveAspectRatio="xMidYMid meet">

<g transform="translate(0.000000,3750.000000) scale(0.100000,-0.100000)"
fill="#000000" stroke="none">
<path d="M27775 32479 c-4 -6 -14 -8 -22 -5 -13 5 -14 1 -8 -26 13 -60 12 -61
-26 -63 -39 -2 -59 -11 -59 -26 0 -6 6 -7 13 -3 7 5 6 0 -3 -11 -11 -13 -12
-19 -3 -22 7 -2 9 -11 6 -19 -3 -9 0 -14 8 -12 10 2 13 -5 11 -21 -3 -20 0
-23 17 -18 23 6 31 -18 9 -25 -15 -5 27 -30 57 -34 11 -1 27 -4 35 -5 8 -2 14
1 13 7 -1 6 4 11 12 11 8 0 12 -4 9 -9 -3 -4 1 -8 9 -8 8 0 17 7 21 15 3 8 15
15 26 15 13 0 20 7 20 20 0 11 4 20 10 20 5 0 8 15 6 33 -3 17 -5 32 -6 32 -7
0 -6 35 2 46 8 11 9 10 4 -3 -3 -12 0 -18 10 -18 10 0 12 -5 7 -12 -12 -20
-14 -46 -3 -53 6 -3 7 1 4 9 -3 9 -2 16 3 16 16 0 6 83 -11 96 -9 6 -12 15 -8
19 4 5 1 4 -7 0 -11 -6 -13 -4 -8 9 4 10 3 15 -3 11 -5 -3 -15 3 -22 15 -17
27 -25 25 -24 -7 1 -19 9 -32 26 -40 19 -10 21 -13 7 -13 -27 0 -48 26 -49 58
-1 23 -5 29 -24 28 -13 -1 -27 -6 -31 -10 -5 -5 -1 -6 7 -1 8 5 12 4 7 0 -13
-15 -36 -14 -30 1 6 16 -3 19 -12 3z m-22 -204 c-3 -9 -8 -14 -10 -11 -3 3 -2
9 2 15 9 16 15 13 8 -4z m-23 1 c0 -2 -7 -7 -16 -10 -8 -3 -12 -2 -9 4 6 10
25 14 25 6z m30 -47 c0 -5 -8 -9 -17 -8 -11 0 -13 3 -5 6 6 2 9 10 6 15 -4 7
-2 8 4 4 7 -4 12 -11 12 -17z m55 -26 c4 -11 0 -11 -18 -2 -31 16 -32 18 -8
16 11 -1 23 -7 26 -14z"/>
<path d="M27700 32445 c-7 -8 -9 -15 -4 -15 5 0 1 -5 -8 -11 -10 -5 -18 -14
-18 -19 0 -11 41 -9 58 3 8 6 12 5 12 -3 0 -8 3 -11 6 -7 3 3 2 12 -2 19 -9
13 -10 18 -13 38 -2 15 -17 12 -31 -5z m25 -35 c-3 -5 -12 -10 -18 -10 -7 0
-6 4 3 10 19 12 23 12 15 0z"/>
<path d="M24416 32210 c-60 -18 -106 -83 -106 -150 0 -141 166 -206 266 -106
79 79 43 222 -64 254 -45 14 -55 14 -96 2z"/>
<path d="M20156 31260 c-68 -40 -191 -77 -316 -96 -126 -19 -437 -21 -620 -4
-116 10 -400 50 -479 66 -32 7 -34 6 -28 -17 4 -14 9 -51 13 -83 7 -54 6 -58
-12 -53 -58 17 -84 18 -79 5 2 -7 16 -92 30 -189 44 -309 58 -501 59 -829 0
-330 -12 -474 -59 -705 -13 -65 -23 -121 -21 -122 1 -2 64 4 139 12 367 41
728 108 1190 221 l228 56 -6 64 -7 63 42 11 42 11 -6 57 c-34 312 -58 798 -59
1209 -1 194 -2 353 -2 352 0 0 -22 -13 -49 -29z"/>
<path d="M20380 28600 c-410 -28 -675 -128 -857 -324 -74 -80 -145 -192 -189
-302 l-28 -70 -94 -53 c-269 -152 -472 -360 -583 -596 -68 -145 -91 -252 -96
-455 -6 -203 8 -321 63 -541 45 -179 167 -538 238 -699 31 -69 77 -189 103
-267 l47 -143 153 0 153 0 0 -580 c0 -644 -2 -671 -64 -805 -85 -181 -247
-315 -442 -365 -72 -19 -113 -20 -628 -20 -303 0 -994 -3 -1535 -7 l-983 -6 6
-49 c9 -62 44 -161 80 -222 27 -46 29 -47 64 -42 74 12 450 55 572 65 401 34
1369 55 2200 48 791 -8 1196 -24 1615 -68 579 -59 980 -224 1280 -524 249
-251 422 -600 520 -1050 13 -60 49 -256 80 -435 229 -1337 542 -3048 615
-3370 64 -285 149 -587 320 -1145 278 -907 389 -1380 440 -1870 62 -610 76
-951 61 -1533 -23 -919 -35 -1112 -87 -1367 -13 -66 -24 -123 -24 -127 0 -4
894 -9 1988 -11 l1987 -3 114 -22 c132 -26 320 -86 412 -133 209 -105 361
-260 409 -418 28 -90 28 -312 0 -402 -92 -300 -496 -527 -1010 -569 -146 -12
-10496 -9 -10600 3 -30 3 -107 8 -170 12 -213 10 -409 32 -454 51 -17 7 -18 4
-12 -32 26 -143 148 -287 294 -346 l57 -23 1255 -5 1255 -5 590 -303 c325
-167 658 -338 740 -379 131 -66 147 -77 125 -83 -182 -55 -256 -82 -375 -139
-184 -89 -328 -176 -712 -434 -558 -374 -725 -438 -1224 -469 -196 -11 -203
-11 -213 7 -6 11 -24 32 -40 47 l-28 28 -500 0 c-559 0 -536 3 -578 -72 -49
-87 -32 -228 35 -287 l36 -31 495 0 c422 0 499 2 524 15 20 10 39 35 57 75
l28 60 65 0 c213 1 520 36 657 76 218 63 357 138 793 430 173 116 361 238 417
272 139 84 340 183 447 221 89 31 310 81 360 81 15 0 202 -89 423 -202 l397
-201 -39 -14 c-79 -27 -124 -98 -125 -193 0 -69 31 -136 79 -167 32 -22 44
-23 207 -23 l174 0 0 -295 0 -295 -85 0 -85 0 0 -1063 0 -1062 -137 -28 c-465
-95 -1302 -289 -1948 -452 -1751 -441 -2822 -813 -3078 -1069 -40 -40 -49 -85
-23 -121 30 -43 154 -86 289 -100 l57 -6 0 -73 0 -73 -77 19 c-115 27 -332 34
-461 14 -210 -32 -385 -111 -502 -226 -72 -71 -128 -167 -137 -239 l-6 -41 62
0 c55 0 62 -2 57 -17 -43 -142 -32 -296 29 -431 l24 -52 -580 0 -579 0 0 225
0 225 -595 0 -595 0 0 -225 0 -225 -5150 0 -5150 0 0 -430 0 -430 21960 0
21960 0 0 430 0 430 -925 0 -925 0 0 225 0 225 -595 0 -595 0 0 -225 0 -225
-3650 0 -3650 0 0 225 0 225 -595 0 -595 0 0 -225 0 -225 -2563 0 -2563 0 -13
35 c-17 47 -101 172 -143 212 -69 65 -185 134 -361 213 -100 45 -218 103 -261
129 -259 151 -537 544 -761 1074 -32 75 -61 137 -65 137 -3 0 -14 -35 -24 -77
-29 -124 -101 -336 -150 -439 -78 -163 -173 -288 -279 -365 l-39 -28 -48 24
c-27 13 -58 38 -69 54 -39 54 -81 157 -105 252 l-23 94 -41 -64 c-35 -54 -102
-203 -102 -228 0 -4 -80 -8 -178 -9 -168 -1 -208 -6 -324 -40 -16 -5 -18 3
-18 70 l0 74 68 7 c134 13 269 61 292 104 20 39 12 76 -27 116 -222 225 -1091
545 -2513 925 -244 65 -1123 285 -1302 326 -51 11 -78 22 -78 31 0 16 113 484
200 828 57 225 86 339 276 1080 291 1135 471 1905 600 2566 4 22 29 39 163
108 l158 81 1079 0 c981 0 1171 4 1226 25 13 5 15 -33 10 -322 -5 -370 6 -684
48 -1408 27 -454 59 -1153 91 -1980 7 -170 12 -585 13 -921 l0 -612 120 -6
c67 -4 166 -11 221 -16 55 -4 268 -19 473 -31 291 -18 375 -20 381 -11 4 7 49
193 100 415 87 376 237 979 551 2217 543 2140 744 3181 849 4405 11 127 25
246 31 265 15 52 12 194 -6 264 -18 73 -77 186 -138 264 -350 455 -1401 910
-2951 1277 -110 26 -217 51 -237 56 l-38 10 0 809 0 810 9110 0 9110 0 0 400
0 400 455 0 455 0 0 350 0 350 -6727 2 c-3701 2 -6313 5 -5807 8 l922 5 59 80
c71 95 225 245 305 298 86 57 198 112 283 138 41 13 75 27 75 30 0 17 -206 32
-366 26 -234 -8 -365 -41 -554 -137 l-97 -50 -466 0 -466 0 -22 33 c-13 17
-30 37 -39 44 -13 10 -11 12 10 17 297 67 412 102 535 164 208 104 342 256
390 442 25 94 17 217 -17 293 -36 78 -114 157 -192 196 -155 76 -349 55 -592
-64 -50 -24 -87 -37 -89 -31 -2 6 -6 53 -10 104 -3 52 -8 107 -12 123 l-5 29
-514 0 -514 0 0 145 0 145 -745 0 -745 0 0 -774 0 -773 -61 -7 c-34 -3 -146
-6 -248 -6 l-187 0 4 -34 4 -34 -57 -7 c-74 -10 -247 0 -395 21 -87 12 -212
17 -515 20 -220 1 -428 3 -462 3 l-61 1 -7 42 c-16 92 -136 283 -290 463 l-77
90 -252 12 c-608 29 -1132 116 -1701 281 -190 56 -699 213 -704 218 -3 2 -13
117 -22 255 -10 138 -19 252 -21 254 -2 1 -28 15 -58 31 -30 16 -91 65 -135
109 -90 89 -147 186 -186 315 -23 73 -23 88 -27 588 l-3 512 5501 0 5501 0 -3
-502 c-4 -483 -5 -506 -26 -582 -57 -203 -177 -361 -342 -447 l-45 -24 40 -3
c22 -2 159 -2 305 0 256 4 268 5 347 32 101 33 214 107 282 184 61 68 120 179
153 282 l23 75 0 3075 c0 3324 4 3106 -52 3243 -61 149 -178 278 -315 345
-159 78 110 72 -3215 74 -1638 0 -2962 3 -2943 5 326 36 759 118 1193 225
l209 52 -4 65 -3 65 38 9 c43 10 43 9 27 177 -28 295 -42 598 -47 1002 l-6
447 -51 -29 c-76 -42 -202 -78 -339 -96 -236 -31 -692 -6 -1015 55 -83 16 -92
16 -88 2 2 -9 7 -34 10 -56 4 -22 9 -52 12 -66 5 -26 5 -26 -38 -18 -24 4 -47
8 -52 9 -5 0 -5 -19 -2 -42 64 -402 83 -627 84 -988 0 -301 -11 -444 -48 -645
-13 -66 -25 -132 -27 -147 l-5 -28 -2217 0 c-2424 0 -2285 3 -2415 -58 -142
-68 -248 -173 -317 -318 -81 -169 -73 94 -76 -2714 l-3 -2505 -390 3 -389 2
-7 23 c-10 33 -314 729 -429 982 -334 736 -364 792 -544 1025 -106 138 -131
165 -227 243 -224 183 -531 333 -1065 521 l-107 37 54 72 c61 80 134 224 157
307 25 88 47 222 47 281 0 79 -27 231 -56 318 -101 301 -364 547 -679 633 -63
17 -113 22 -238 24 -154 2 -159 3 -193 29 -20 15 -56 55 -81 89 -199 269 -200
601 -4 796 67 67 117 92 192 98 111 8 231 -50 361 -176 l68 -65 652 117 c359
64 766 136 903 161 138 25 258 45 268 45 38 0 12 -181 -40 -268 -53 -91 -165
-170 -264 -187 -21 -4 -39 -11 -39 -16 0 -4 16 -19 36 -33 31 -21 40 -23 72
-14 66 18 150 69 200 122 110 116 136 200 131 421 l-4 152 -43 85 c-51 104
-113 165 -222 217 l-75 36 -177 3 c-98 2 -178 6 -178 8 0 3 9 14 20 26 29 31
25 78 -10 126 -31 43 -65 65 -134 87 -23 7 -34 13 -25 14 16 1 89 163 141 311
67 193 92 416 86 785 l-3 190 -140 58 c-385 161 -850 279 -1272 322 -281 28
-1033 50 -1243 35z m2460 -2014 c0 -7 -13 -19 -30 -26 -60 -25 -139 -132 -155
-210 -6 -34 -6 -34 9 -13 17 23 68 57 102 67 21 6 22 3 25 -72 3 -64 10 -90
35 -138 l30 -60 -570 -98 c-314 -54 -578 -100 -587 -102 -13 -3 -18 10 -28 68
-7 40 -24 118 -38 173 -21 84 -37 132 -90 263 -3 7 28 -5 68 -27 101 -54 177
-74 279 -74 138 -1 270 42 406 132 69 45 76 48 197 65 69 9 168 28 219 41 112
28 128 29 128 11z m495 -46 c84 -33 183 -132 214 -214 12 -33 18 -62 14 -66
-4 -4 -131 -28 -282 -54 l-274 -47 -28 27 c-40 38 -143 345 -122 364 15 15 58
18 238 16 162 -2 186 -5 240 -26z m3243 -1067 l-3 -28 -270 0 -270 0 -3 28 -3
27 276 0 276 0 -3 -27z m3072 -3 l0 -30 -365 0 -365 0 0 30 0 30 365 0 365 0
0 -30z m2540 0 l0 -30 -1195 0 -1195 0 0 30 0 30 1195 0 1195 0 0 -30z m1638
3 l-3 -28 -387 -3 c-383 -2 -388 -2 -388 18 0 18 -7 20 -85 20 -78 0 -85 -2
-85 -20 0 -20 -7 -20 -270 -20 l-270 0 0 30 0 30 746 0 745 0 -3 -27z m1032
-3 l0 -30 -297 2 -298 3 -3 28 -3 27 300 0 301 0 0 -30z m-8282 -267 l-3 -28
-270 0 -270 0 -3 28 -3 27 276 0 276 0 -3 -27z m3072 -3 l0 -30 -365 0 -365 0
0 30 0 30 365 0 365 0 0 -30z m1638 3 l-3 -28 -742 -3 -743 -2 0 30 0 30 746
0 745 0 -3 -27z m902 -3 l0 -30 -310 0 -310 0 0 30 0 30 310 0 310 0 0 -30z
m690 0 l0 -30 -270 0 -270 0 0 30 0 30 270 0 270 0 0 -30z m948 3 l-3 -28
-387 -3 -388 -2 0 30 0 30 391 0 390 0 -3 -27z m1032 -3 l0 -30 -297 2 -298 3
-3 28 -3 27 300 0 301 0 0 -30z m-4620 -165 c37 -19 50 -43 50 -92 -1 -91
-103 -135 -172 -74 -28 25 -33 36 -33 76 0 40 5 51 33 76 37 33 77 37 122 14z
m456 -4 c70 -43 63 -146 -12 -177 -72 -30 -139 13 -139 91 0 85 79 130 151 86z
m-4336 -96 l0 -35 -162 2 c-148 3 -163 5 -166 21 -9 45 -1 47 168 47 l160 0 0
-35z m5330 0 l0 -36 -57 3 c-46 2 -58 7 -61 21 -7 38 5 47 63 47 l55 0 0 -35z
m1190 0 l0 -35 -375 0 -375 0 0 35 0 35 375 0 375 0 0 -35z m945 0 l0 -30
-385 0 c-363 0 -385 1 -388 18 -10 48 -18 47 390 45 l383 -3 0 -30z m1035 0
l0 -35 -297 2 c-278 3 -298 4 -301 21 -9 47 -11 47 303 47 l295 0 0 -35z
m-8498 -240 c2 -3 3 -19 0 -35 l-4 -30 -162 2 c-146 3 -161 5 -164 21 -9 45
-1 47 166 47 87 0 161 -2 164 -5z m5328 -30 l0 -36 -57 3 c-46 2 -58 7 -61 21
-7 38 5 47 63 47 l55 0 0 -35z m2135 0 l0 -30 -847 -3 -848 -2 0 35 0 35 848
-2 847 -3 0 -30z m650 0 l0 -30 -105 0 c-93 0 -105 2 -108 18 -9 44 2 48 110
45 l103 -3 0 -30z m385 0 l0 -36 -152 3 c-138 3 -153 5 -156 21 -9 45 -1 47
158 47 l150 0 0 -35z m-8500 -270 l0 -35 -162 2 c-148 3 -163 5 -166 21 -9 45
-1 47 168 47 l160 0 0 -35z m8115 0 l0 -30 -1172 -3 -1173 -2 0 35 0 35 1173
-2 1172 -3 0 -30z m385 0 l0 -36 -152 3 c-138 3 -153 5 -156 21 -9 45 -1 47
158 47 l150 0 0 -35z m-7950 0 c0 -25 0 -25 -95 -25 -95 0 -95 0 -95 25 0 25
0 25 95 25 95 0 95 0 95 -25z m3490 0 l0 -25 -1405 0 -1405 0 0 25 0 25 1405
0 1405 0 0 -25z m-8553 -136 c64 -24 123 -109 123 -179 0 -99 -94 -190 -196
-190 -12 0 -50 -11 -85 -24 -242 -91 -597 -164 -1054 -218 -195 -22 -579 -30
-687 -14 l-48 7 0 280 c0 228 2 279 14 279 7 0 71 -9 142 -20 298 -45 427 -54
779 -54 265 0 368 3 466 17 202 27 316 54 352 81 18 14 44 29 57 35 34 13 102
13 137 0z m5063 -94 c0 -25 0 -25 -95 -25 -95 0 -95 0 -95 25 0 25 0 25 95 25
95 0 95 0 95 -25z m3310 0 c0 -16 -6 -25 -15 -25 -8 0 -15 9 -15 20 0 19 -7
20 -230 20 -223 0 -230 -1 -230 -20 0 -20 -7 -20 -1070 -20 l-1070 0 0 25 0
25 1315 0 1315 0 0 -25z m-3860 -35 l0 -30 -165 0 -165 0 0 23 c0 13 3 27 7
30 3 4 78 7 165 7 l158 0 0 -30z m6830 0 l0 -30 -625 0 c-410 0 -625 3 -625
10 0 6 38 10 95 10 88 0 95 1 95 20 0 20 7 20 530 20 l530 0 0 -30z m1290 0
l0 -30 -620 0 -620 0 0 23 c0 13 3 27 7 30 3 4 282 7 620 7 l613 0 0 -30z
m380 0 l0 -30 -155 0 -155 0 0 30 0 30 155 0 155 0 0 -30z m-7950 -195 c0 -25
0 -25 -95 -25 -95 0 -95 0 -95 25 0 25 0 25 95 25 95 0 95 0 95 -25z m2560 0
l0 -25 -940 0 -940 0 0 25 0 25 940 0 940 0 0 -25z m750 10 c0 -12 17 -15 90
-15 53 0 90 -4 90 -10 0 -6 -42 -10 -105 -10 l-105 0 0 25 c0 16 6 25 15 25 8
0 15 -7 15 -15z m-3852 -87 c3 -27 2 -28 -42 -28 -25 0 -46 5 -46 10 0 6 -33
10 -79 10 -44 0 -83 -4 -86 -10 -3 -5 -24 -10 -46 -10 -37 0 -39 2 -39 30 l0
30 168 -2 167 -3 3 -27z m6822 2 l0 -30 -625 0 -625 0 0 30 0 30 625 0 625 0
0 -30z m1290 0 l0 -30 -620 0 -620 0 0 30 0 30 620 0 620 0 0 -30z m380 0 l0
-30 -155 0 -155 0 0 30 0 30 155 0 155 0 0 -30z m-7946 -145 c5 -13 52 -15
341 -15 291 0 335 2 335 15 0 13 48 15 375 15 l375 0 0 -25 0 -25 -810 0 -810
0 0 25 c0 25 0 25 94 25 74 0 95 -3 100 -15z m2556 -10 l0 -25 -175 0 -175 0
0 25 0 25 175 0 175 0 0 -25z m950 0 l0 -25 -135 0 -135 0 0 25 0 25 135 0
135 0 0 -25z m-4310 -115 c0 -28 -2 -30 -40 -30 -38 0 -40 2 -40 30 0 28 2 30
40 30 38 0 40 -2 40 -30z m258 -2 c3 -27 2 -28 -42 -28 -45 0 -46 1 -46 31 0
29 1 30 43 27 38 -3 42 -6 45 -30z m6822 17 c0 -13 -76 -15 -625 -15 -549 0
-625 2 -625 15 0 13 76 15 625 15 549 0 625 -2 625 -15z m1290 0 c0 -13 -76
-15 -620 -15 -544 0 -620 2 -620 15 0 13 76 15 620 15 544 0 620 -2 620 -15z
m380 0 c0 -13 -24 -15 -155 -15 -131 0 -155 2 -155 15 0 13 24 15 155 15 131
0 155 -2 155 -15z m-101 -71 c27 -34 27 -66 -1 -99 -30 -35 -79 -37 -113 -5
-51 48 -16 130 55 130 30 0 43 -6 59 -26z m325 5 c52 -41 19 -129 -48 -129
-67 0 -99 77 -51 125 30 30 64 32 99 4z m-7494 -64 l0 -25 -435 0 -435 0 0 25
0 25 435 0 435 0 0 -25z m2940 0 l0 -25 -705 0 -705 0 0 25 0 25 705 0 705 0
0 -25z m-4160 -155 c0 -29 -2 -30 -45 -30 -43 0 -45 1 -45 30 0 29 2 30 45 30
43 0 45 -1 45 -30z m1220 -75 l0 -25 -435 0 -435 0 0 25 0 25 435 0 435 0 0
-25z m750 5 c0 -20 7 -20 390 -20 383 0 390 0 390 20 0 20 7 20 705 20 463 0
705 -3 705 -10 0 -6 -100 -10 -280 -10 -240 0 -281 -2 -286 -15 -5 -12 -25
-15 -90 -15 -77 0 -84 2 -84 20 0 19 -7 20 -150 20 -143 0 -150 -1 -150 -20 0
-20 -7 -20 -605 -20 l-605 0 0 25 c0 21 5 25 30 25 23 0 30 -4 30 -20z m4300
-130 l0 -40 -265 0 -265 0 0 40 0 40 265 0 265 0 0 -40z m360 0 l0 -40 -145 0
-145 0 0 40 0 40 145 0 145 0 0 -40z m750 0 l0 -40 -350 0 -350 0 0 40 0 40
350 0 350 0 0 -40z m1150 0 l0 -40 -430 0 -430 0 0 25 c0 16 -6 25 -15 25 -9
0 -15 -9 -15 -25 0 -25 -1 -25 -80 -25 l-80 0 0 40 0 40 525 0 525 0 0 -40z
m500 0 l0 -40 -145 0 c-109 0 -145 3 -146 13 0 10 -2 10 -6 0 -3 -9 -32 -13
-94 -13 l-89 0 0 40 0 40 240 0 240 0 0 -40z m-9030 -70 c0 -29 -2 -30 -45
-30 -43 0 -45 1 -45 30 0 29 2 30 45 30 43 0 45 -1 45 -30z m1225 -20 c4 -6
130 -10 346 -10 219 0 339 4 339 10 0 6 113 10 320 10 l320 0 0 -25 0 -25
-1100 0 -1100 0 0 25 0 25 434 0 c279 0 437 -4 441 -10z m1895 -15 c0 -22 -4
-25 -35 -25 -31 0 -35 3 -35 25 0 22 4 25 35 25 31 0 35 -3 35 -25z m470 0 c0
-25 -1 -25 -85 -25 -84 0 -85 0 -85 25 0 25 1 25 85 25 84 0 85 0 85 -25z
m2680 -20 c0 -13 -36 -15 -265 -15 -229 0 -265 2 -265 15 0 13 36 15 265 15
229 0 265 -2 265 -15z m360 0 c0 -13 -23 -15 -145 -15 -122 0 -145 2 -145 15
0 13 23 15 145 15 122 0 145 -2 145 -15z m750 0 c0 -13 -46 -15 -350 -15 -192
0 -350 4 -350 8 0 5 3 12 7 15 3 4 161 7 350 7 298 0 343 -2 343 -15z m260 0
c0 -12 -16 -15 -80 -15 -64 0 -80 3 -80 15 0 12 16 15 80 15 64 0 80 -3 80
-15z m888 -2 c3 -10 -87 -13 -427 -13 -378 0 -431 2 -431 15 0 13 52 15 427
13 330 -2 427 -6 431 -15z m202 2 c0 -12 -17 -15 -90 -15 -73 0 -90 3 -90 15
0 12 17 15 90 15 73 0 90 -3 90 -15z m300 0 c0 -13 -23 -15 -145 -15 -133 0
-157 4 -138 23 3 4 69 7 145 7 116 0 138 -2 138 -15z m-2760 -55 c0 -19 -7
-20 -265 -20 -258 0 -265 1 -265 20 0 19 7 20 265 20 258 0 265 -1 265 -20z
m360 0 c0 -19 -7 -20 -145 -20 -138 0 -145 1 -145 20 0 19 7 20 145 20 138 0
145 -1 145 -20z m750 0 c0 -20 -7 -20 -350 -20 -285 0 -350 2 -350 13 0 8 3
17 7 20 3 4 161 7 350 7 336 0 343 0 343 -20z m260 0 c0 -18 -7 -20 -80 -20
-73 0 -80 2 -80 20 0 18 7 20 80 20 73 0 80 -2 80 -20z m888 -2 c3 -17 -10
-18 -162 -18 -104 0 -166 4 -166 10 0 6 -7 10 -15 10 -8 0 -15 -4 -15 -10 0
-6 -90 -10 -250 -10 -244 0 -250 1 -250 20 0 20 5 20 427 18 398 -3 428 -4
431 -20z m202 2 c0 -19 -7 -20 -90 -20 -83 0 -90 1 -90 20 0 19 7 20 90 20 83
0 90 -1 90 -20z m300 0 c0 -19 -7 -20 -145 -20 -114 0 -145 3 -145 13 0 8 3
17 7 20 3 4 69 7 145 7 131 0 138 -1 138 -20z m-9030 -160 c0 -29 -2 -30 -45
-30 -43 0 -45 1 -45 30 0 29 2 30 45 30 43 0 45 -1 45 -30z m6640 -100 c0 -7
-157 -10 -450 -10 -293 0 -450 3 -450 10 0 7 157 10 450 10 293 0 450 -3 450
-10z m370 0 c0 -6 -67 -10 -180 -10 -113 0 -180 4 -180 10 0 6 67 10 180 10
113 0 180 -4 180 -10z m370 0 c0 -6 -55 -10 -145 -10 -90 0 -145 4 -145 10 0
6 55 10 145 10 90 0 145 -4 145 -10z m790 0 c0 -6 -122 -10 -345 -10 -223 0
-345 4 -345 10 0 6 122 10 345 10 223 0 345 -4 345 -10z m360 0 c0 -6 -62 -10
-165 -10 -103 0 -165 4 -165 10 0 6 62 10 165 10 103 0 165 -4 165 -10z m500
0 c0 -6 -83 -10 -230 -10 -147 0 -230 4 -230 10 0 6 83 10 230 10 147 0 230
-4 230 -10z m-2390 -85 l0 -45 -450 0 -450 0 0 45 0 45 450 0 450 0 0 -45z
m370 0 l0 -45 -177 2 -178 3 -3 43 -3 42 180 0 181 0 0 -45z m370 0 l0 -45
-145 0 -145 0 0 45 0 45 145 0 145 0 0 -45z m790 10 c0 -24 5 -35 15 -35 10 0
15 11 15 35 l0 35 166 0 165 0 -3 -42 -3 -43 -522 -3 -523 -2 0 45 0 45 345 0
345 0 0 -35z m860 -10 l0 -46 -82 3 c-82 3 -83 3 -86 31 -3 26 -5 27 -63 27
-59 0 -59 0 -59 -30 l0 -30 -85 0 -85 0 0 45 0 45 230 0 230 0 0 -45z m-9287
-75 c5 -18 14 -20 86 -20 74 0 81 2 81 20 0 17 7 20 46 20 44 0 45 -1 42 -27
l-3 -28 -137 -3 -138 -3 0 31 c0 34 15 41 23 10z m255 -277 l-3 -28 -137 -3
-138 -3 0 31 0 30 141 0 140 0 -3 -27z m5512 -3 l0 -30 -190 0 -190 0 0 30 0
30 190 0 190 0 0 -30z m628 3 l-98 -4 0 -44 0 -45 -145 0 -145 0 0 50 0 50
243 -2 c133 -1 198 -4 145 -5z m2010 0 c-21 -2 -57 -2 -80 0 -24 2 -7 4 37 4
44 0 63 -2 43 -4z m345 0 c-29 -2 -78 -2 -110 0 -32 2 -8 3 52 3 61 0 87 -1
58 -3z m547 -43 l0 -50 -140 0 -140 0 0 45 0 44 -92 4 c-51 1 12 4 140 5 l232
2 0 -50z m-9042 -227 l-3 -28 -137 -3 -138 -3 0 31 0 30 141 0 140 0 -3 -27z
m5512 -3 l0 -30 -190 0 -190 0 0 30 0 30 190 0 190 0 0 -30z m670 -135 c0 -33
-2 -35 -35 -35 -31 0 -35 3 -36 28 l-2 27 -4 -27 -4 -28 -175 0 -174 0 0 35 0
35 215 0 215 0 0 -35z m398 3 l-3 -33 -192 -3 -193 -2 0 35 0 35 196 0 195 0
-3 -32z m442 -3 l0 -36 -152 3 -153 3 -3 33 -3 32 155 0 156 0 0 -35z m320 0
l0 -35 -120 0 -120 0 0 35 0 35 120 0 120 0 0 -35z m840 0 l0 -35 -345 0 -345
0 0 35 0 35 345 0 345 0 0 -35z m358 3 l-3 -33 -102 -3 -103 -3 0 36 0 35 106
0 105 0 -3 -32z m212 -3 l0 -35 -85 0 -85 0 0 35 0 35 85 0 85 0 0 -35z m290
0 l0 -35 -80 0 -80 0 0 35 0 35 80 0 80 0 0 -35z m-9045 -130 l0 -30 -137 -3
-138 -3 0 36 0 36 138 -3 137 -3 0 -30z m5513 -2 l3 -33 -190 0 -191 0 0 35 0
35 188 -2 187 -3 3 -32z m592 -43 c0 -19 -7 -20 -175 -20 -168 0 -175 1 -175
20 0 19 7 20 175 20 168 0 175 -1 175 -20z m80 0 c0 -16 -7 -20 -35 -20 -28 0
-35 4 -35 20 0 16 7 20 35 20 28 0 35 -4 35 -20z m470 0 c0 -19 -7 -20 -230
-20 -223 0 -230 1 -230 20 0 19 7 20 230 20 223 0 230 -1 230 -20z m370 0 c0
-19 -7 -20 -180 -20 -143 0 -180 3 -180 13 0 8 3 17 7 20 3 4 84 7 180 7 166
0 173 -1 173 -20z m320 0 c0 -19 -7 -20 -120 -20 -113 0 -120 1 -120 20 0 19
7 20 120 20 113 0 120 -1 120 -20z m850 0 c0 -20 -7 -20 -350 -20 -343 0 -350
0 -350 20 0 20 7 20 350 20 343 0 350 0 350 -20z m348 -2 c3 -16 -7 -18 -102
-18 -100 0 -106 1 -106 20 0 20 5 21 102 18 89 -3 103 -5 106 -20z m212 2 c0
-18 -7 -20 -85 -20 -78 0 -85 2 -85 20 0 18 7 20 85 20 78 0 85 -2 85 -20z
m290 0 c0 -18 -7 -20 -80 -20 -73 0 -80 2 -80 20 0 18 7 20 80 20 73 0 80 -2
80 -20z m-1570 -190 l0 -50 -140 0 -140 0 0 45 0 44 -92 4 c-51 1 12 4 140 5
l232 2 0 -50z m-7475 -35 l0 -30 -165 0 c-151 0 -165 2 -168 18 -9 46 -2 48
170 45 l163 -3 0 -30z m5510 0 l0 -30 -187 -3 -188 -2 0 35 0 35 188 -2 187
-3 0 -30z m2643 -162 l3 -33 -350 0 -351 0 0 35 0 35 348 -2 347 -3 3 -32z
m822 2 l0 -35 -345 0 -345 0 0 35 0 35 345 0 345 0 0 -35z m-8880 -110 l0 -35
-212 2 c-196 3 -213 4 -216 21 -9 46 -5 47 218 47 l210 0 0 -35z m520 0 l0
-35 -215 0 -215 0 0 35 0 35 215 0 215 0 0 -35z m770 0 l0 -35 -290 0 -290 0
0 35 0 35 290 0 290 0 0 -35z m1020 0 l0 -35 -330 0 -330 0 0 35 0 35 330 0
330 0 0 -35z m960 0 l0 -35 -415 0 -415 0 0 35 0 35 415 0 415 0 0 -35z m880
0 l0 -35 -385 0 -385 0 0 35 0 35 385 0 385 0 0 -35z m1265 0 l0 -30 -545 0
c-518 0 -545 1 -548 18 -10 49 -30 47 550 45 l543 -3 0 -30z m1105 -60 l0 -35
-345 0 -345 0 0 35 0 35 345 0 345 0 0 -35z m358 -2 l3 -33 -105 0 -106 0 0
35 0 36 103 -3 102 -3 3 -32z m212 2 l0 -35 -85 0 -85 0 0 35 0 35 85 0 85 0
0 -35z m290 0 l0 -35 -80 0 -80 0 0 35 0 35 80 0 80 0 0 -35z m-850 -185 c0
-20 -7 -20 -350 -20 -343 0 -350 0 -350 20 0 20 7 20 350 20 343 0 350 0 350
-20z m348 3 c-3 -16 -17 -18 -106 -21 -97 -3 -102 -2 -102 18 0 19 6 20 106
20 95 0 105 -2 102 -17z m212 -3 c0 -18 -7 -20 -85 -20 -78 0 -85 2 -85 20 0
18 7 20 85 20 78 0 85 -2 85 -20z m290 0 c0 -18 -7 -20 -80 -20 -73 0 -80 2
-80 20 0 18 7 20 80 20 73 0 80 -2 80 -20z m-6860 -25 l0 -35 -472 2 c-447 3
-473 4 -476 21 -10 48 -24 47 478 47 l470 0 0 -35z m770 0 l0 -35 -290 0 -290
0 0 35 0 35 290 0 290 0 0 -35z m1980 0 l0 -35 -810 0 -810 0 0 35 0 35 810 0
810 0 0 -35z m880 0 l0 -35 -385 0 -385 0 0 35 0 35 385 0 385 0 0 -35z m1265
0 l0 -30 -545 0 c-518 0 -545 1 -548 18 -10 49 -30 47 550 45 l543 -3 0 -30z
m-325 -2594 l29 -28 -6 -139 c-4 -117 -2 -155 16 -240 35 -170 118 -383 190
-489 23 -32 27 -85 11 -116 -16 -29 -67 -51 -100 -44 -43 9 -87 67 -146 190
-153 317 -215 689 -142 842 27 58 103 70 148 24z m2306 -72 c126 -60 171 -180
125 -328 -27 -88 -62 -141 -141 -214 -117 -109 -285 -179 -583 -246 -76 -17
-140 -31 -142 -31 -1 0 11 42 27 93 41 127 66 247 88 417 18 143 19 145 52
173 44 37 187 109 269 136 144 47 207 47 305 0z m-786 -1019 c0 -24 -27 -37
-43 -21 -8 8 -6 15 9 26 26 20 34 19 34 -5z m-1473 -219 c59 -74 163 -174 208
-199 15 -8 -576 -11 -2275 -11 -2061 1 -2288 2 -2230 16 359 83 650 153 825
199 l210 56 1165 7 c641 4 1361 8 1600 9 l435 2 62 -79z m-7187 -17 c30 -31
89 -83 130 -117 41 -33 79 -64 85 -69 5 -4 -120 -8 -277 -8 l-286 0 -6 108
c-4 59 -10 115 -12 125 -5 16 7 17 153 17 l159 0 54 -56z m1564 -1810 c14 -15
30 -43 36 -63 10 -35 15 -1241 5 -1241 -2 0 -89 15 -192 34 -327 60 -629 97
-945 115 l-167 10 -74 74 c-42 41 -90 102 -111 139 -48 86 -108 247 -152 406
-33 123 -114 500 -114 535 0 16 53 17 844 17 l843 0 27 -26z m-3646 -7526 c6
-108 4 -138 -5 -138 -10 0 -13 43 -11 188 2 192 4 186 16 -50z m-778 -3148 c0
-19 7 -20 100 -20 l100 0 0 -541 c0 -510 -1 -540 -17 -535 -118 33 -383 40
-524 13 -270 -53 -475 -182 -564 -357 -12 -25 -26 -61 -30 -80 -3 -19 -9 -43
-11 -52 -5 -16 2 -18 59 -18 l64 0 -13 -52 c-21 -79 -18 -224 6 -300 11 -34
20 -64 20 -65 0 -2 -913 -3 -2029 -3 l-2030 0 24 53 c54 118 71 273 41 385
l-14 52 225 0 226 0 -7 46 c-3 25 -19 74 -36 109 l-30 64 2 243 3 243 2210
416 c1216 230 2213 418 2218 418 4 1 7 -8 7 -19z m1580 -105 c261 -49 1220
-228 2130 -400 l1655 -311 3 -243 2 -243 -30 -61 c-16 -34 -33 -83 -36 -109
l-7 -48 225 0 225 0 -13 -52 c-17 -64 -18 -188 -3 -260 6 -29 24 -81 40 -115
l28 -63 -1119 0 -1118 0 -37 74 c-71 144 -188 246 -391 342 -312 147 -385 185
-455 242 -225 178 -451 521 -654 990 -34 79 -66 144 -70 145 -4 1 -21 -47 -36
-108 -74 -291 -182 -526 -309 -668 -48 -54 -159 -137 -183 -137 -21 0 -87 88
-127 169 -18 35 -43 106 -56 159 -13 53 -26 98 -29 100 -9 9 -86 -123 -114
-197 -52 -135 -81 -334 -81 -558 l0 -103 -120 0 -120 0 0 770 0 770 75 0 c67
0 75 2 75 19 0 18 3 18 88 1 48 -9 301 -57 562 -105z m-1323 -1897 c-3 -8 -6
-5 -6 6 -1 11 2 17 5 13 3 -3 4 -12 1 -19z"/>
<path d="M14875 28416 c-254 -85 -488 -172 -689 -258 -158 -67 -490 -233 -507
-254 -9 -11 -6 -25 11 -61 126 -268 210 -457 210 -472 0 -6 -4 -11 -9 -11 -17
0 2 -42 22 -49 11 -4 29 -31 43 -64 36 -89 37 -97 20 -97 -17 0 -21 -27 -7
-48 4 -8 16 -12 26 -10 14 2 23 -11 40 -63 l23 -67 -23 -10 c-17 -8 -21 -16
-17 -37 4 -22 8 -25 32 -20 26 6 28 3 44 -53 19 -70 19 -72 4 -72 -27 0 -39
-17 -33 -43 6 -22 10 -25 31 -17 13 5 26 5 29 1 8 -15 44 -260 51 -353 3 -49
10 -88 15 -88 4 0 98 36 207 80 110 44 202 80 205 80 4 0 7 -31 7 -70 0 -38 2
-70 5 -70 2 0 15 5 29 11 27 12 36 43 36 119 l0 48 73 33 c117 53 540 268 703
359 l152 83 -39 106 c-133 368 -297 895 -387 1247 -41 159 -52 189 -68 191
-10 1 -118 -31 -239 -71z"/>
<path d="M11970 24793 c-231 -119 -720 -134 -1280 -39 -74 13 -136 23 -137 22
0 -1 5 -36 11 -79 l13 -78 -49 6 c-26 4 -48 3 -48 -2 0 -5 11 -85 24 -178 50
-344 60 -490 60 -840 1 -353 -10 -482 -58 -713 l-23 -112 26 0 c97 0 501 60
786 116 151 30 608 134 710 163 30 8 30 8 27 74 l-2 66 35 7 c19 3 38 10 41
15 3 5 -2 96 -10 202 -37 453 -46 658 -47 1063 0 189 -3 343 -7 342 -4 0 -36
-16 -72 -35z"/>
<path d="M15391 23673 c-2 -26 -140 -126 -246 -178 -254 -125 -608 -205 -1103
-250 -83 -8 -81 -3 -39 -97 l26 -56 -50 -7 c-32 -5 -49 -11 -45 -19 185 -428
273 -673 356 -991 67 -258 107 -511 112 -697 1 -49 5 -88 8 -88 4 0 32 9 63
19 40 14 57 16 57 8 0 -7 81 -1021 180 -2254 99 -1234 180 -2252 180 -2263 0
-20 -4 -20 -1285 -20 l-1285 0 0 -350 0 -350 490 0 490 0 0 -400 0 -400 855 0
855 0 4 -22 c3 -13 68 -822 146 -1798 77 -976 143 -1792 146 -1813 4 -28 10
-37 21 -33 38 15 230 47 333 56 73 6 1117 10 2849 10 l2734 0 56 42 c89 67
221 207 284 302 155 231 242 526 287 976 18 175 23 733 11 1085 -7 182 -16
620 -21 975 -5 355 -11 681 -15 725 -3 44 -10 181 -15 305 -46 990 -168 2220
-355 3575 -25 176 -61 455 -80 620 -59 494 -109 751 -192 995 -97 288 -259
540 -452 707 -222 190 -513 331 -864 418 -307 75 -585 107 -1222 140 -266 14
-456 26 -1250 77 -124 8 -407 13 -745 13 -845 -1 -1034 -26 -1705 -230 -331
-101 -484 -145 -501 -145 -17 0 -15 16 12 148 43 206 209 408 394 480 75 29
342 86 530 113 85 12 158 25 161 28 4 3 -6 51 -23 106 -16 55 -55 201 -88 325
-32 124 -59 219 -59 213z"/>
<path d="M38092 20494 c-92 -46 -176 -156 -223 -293 -13 -37 -80 -536 -205
-1535 -176 -1399 -186 -1485 -175 -1549 22 -133 90 -226 209 -284 l76 -38 770
-3 c561 -2 786 0 826 8 119 26 229 110 284 217 55 109 57 43 -53 1633 -61 875
-107 1483 -116 1525 -32 147 -119 274 -220 321 l-50 24 -536 0 -535 0 -52 -26z"/>
<path d="M30491 20069 c-74 -13 -168 -65 -203 -113 -104 -144 -14 -308 193
-352 131 -28 258 4 339 85 138 138 53 330 -166 376 -77 16 -86 16 -163 4z"/>
</g>
</svg>
